# xmcd
# 
# Track frame offsets:
#     150
#     17458
#     33995
#     45262
#     59672
#     93219
#     113071
#     147239
# 
# Disc length: 3609
# 
# Revision: 0
# Processed by: cddbd v1.5.2PL0 Copyright (c) Steve Scherf et al.
# Submitted via: fre:ac v1.0.17
# 
DISCID=5c0e1708
DTITLE=Luke - La tête en arrière CD2
DYEAR=2004
DGENRE=Rock
TTITLE0=Sous ton regard
TTITLE1=On a rien
TTITLE2=A feu et à sang
TTITLE3=Petite france (Live)
TTITLE4=Zoé (Live)
TTITLE5=Hasta siempre (Live)
TTITLE6=Me passer de toi (Live)
TTITLE7=Data track
EXTD=
EXTT0=
EXTT1=
EXTT2=
EXTT3=
EXTT4=
EXTT5=
EXTT6=
EXTT7=
PLAYORDER=
